<?xml version="1.0" encoding="utf-8"?>
<!-- Generator: Adobe Illustrator 23.0.5, SVG Export Plug-In . SVG Version: 6.00 Build 0)  -->
<svg version="1.1" id="Layer_1" xmlns="http://www.w3.org/2000/svg" xmlns:xlink="http://www.w3.org/1999/xlink" x="0px" y="0px"
	 viewBox="0 0 812 524.3" style="enable-background:new 0 0 812 524.3;" xml:space="preserve">
<style type="text/css">
	.st0{fill:#FFFFFF;}
	.st1{fill:#D8D8D8;}
	.st2{fill:none;stroke:#30292C;stroke-width:4;stroke-linecap:round;stroke-linejoin:round;stroke-miterlimit:10;}
	.st3{fill:#FF415B;}
	.st4{fill:#EC1CE4;}
	.st5{fill:none;stroke:#133B4F;stroke-width:4;stroke-linecap:round;stroke-linejoin:round;stroke-miterlimit:10;}
	.st6{fill:#67CC70;}
	.st7{fill:#30292C;}
	.st8{fill:#CE7867;}
	.st9{fill:#5CECFF;}
	.st10{fill:#CCCCCC;}
	.st11{fill:#8E5645;}
	.st12{fill:#AE6553;}
	.st13{fill:#FFC25D;}
	.st14{fill:#00C899;}
	.st15{fill:#959595;}
	.st16{fill:#00B2C8;}
	.st17{fill:none;stroke:#30292C;stroke-width:8;stroke-linecap:round;stroke-linejoin:round;stroke-miterlimit:10;}
</style>
<g>
	<path id="XMLID_116_" class="st0" d="M729,516.3L729,516.3c-10.5,0-19-8.5-19-19v-149h38v149C748,507.8,739.5,516.3,729,516.3z"/>
	<path id="XMLID_114_" class="st1" d="M751,332.3h-44c-4.4,0-8,3.6-8,8l0,0c0,4.4,3.6,8,8,8h44c4.4,0,8-3.6,8-8l0,0
		C759,335.9,755.4,332.3,751,332.3z"/>
	<path id="XMLID_96_" class="st2" d="M729,516.3L729,516.3c-10.5,0-19-8.5-19-19v-149h38v149C748,507.8,739.5,516.3,729,516.3z"/>
	<path id="XMLID_95_" class="st2" d="M751,332.3h-44c-4.4,0-8,3.6-8,8l0,0c0,4.4,3.6,8,8,8h44c4.4,0,8-3.6,8-8l0,0
		C759,335.9,755.4,332.3,751,332.3z"/>
	<path id="XMLID_113_" class="st3" d="M719,443.3v54c0,5.5,4.5,10,10,10s10-4.5,10-10v-54H719z"/>
	<path id="XMLID_107_" class="st2" d="M719,443.3v54c0,5.5,4.5,10,10,10s10-4.5,10-10v-54H719z"/>
	<circle id="XMLID_145_" class="st4" cx="724" cy="310.1" r="3.2"/>
	<circle id="XMLID_148_" class="st3" cx="711.5" cy="274.6" r="7.2"/>
	<circle id="XMLID_149_" class="st3" cx="745.4" cy="302.2" r="6.2"/>
	<circle id="XMLID_128_" class="st5" cx="724" cy="310.1" r="3.2"/>
	<circle id="XMLID_127_" class="st5" cx="731" cy="288.8" r="2.1"/>
	<circle id="XMLID_85_" class="st5" cx="711.5" cy="274.6" r="7.2"/>
	<circle id="XMLID_84_" class="st5" cx="745.4" cy="302.2" r="6.2"/>
	<circle id="XMLID_140_" class="st3" cx="725.5" cy="403.7" r="7.2"/>
	<circle id="XMLID_134_" class="st2" cx="725.5" cy="403.7" r="7.2"/>
	<circle id="XMLID_153_" class="st3" cx="731.8" cy="428.4" r="3.1"/>
	<circle id="XMLID_80_" class="st2" cx="731.8" cy="428.4" r="3.1"/>
	<circle id="XMLID_165_" class="st3" cx="735.8" cy="362.3" r="4.3"/>
	<circle id="XMLID_162_" class="st2" cx="735.8" cy="362.3" r="4.3"/>
	<circle id="XMLID_169_" class="st6" cx="720.8" cy="355.6" r="1.6"/>
	<circle id="XMLID_167_" class="st2" cx="720.8" cy="355.6" r="1.6"/>
	<circle id="XMLID_75_" class="st7" cx="730.2" cy="458.9" r="1.6"/>
	<circle id="XMLID_156_" class="st7" cx="721.6" cy="475.7" r="2.6"/>
	<circle id="XMLID_72_" class="st7" cx="733.3" cy="488.7" r="3.8"/>
	<circle id="XMLID_70_" class="st7" cx="727.7" cy="454.2" r="0.6"/>
</g>
<g>
	<path id="XMLID_110_" class="st0" d="M661.1,516.3L661.1,516.3c-10.5,0-19-8.5-19-19v-149h38v149
		C680.1,507.8,671.6,516.3,661.1,516.3z"/>
	<path id="XMLID_69_" class="st2" d="M661.1,516.3L661.1,516.3c-10.5,0-19-8.5-19-19v-149h38v149
		C680.1,507.8,671.6,516.3,661.1,516.3z"/>
	<rect id="XMLID_112_" x="645.4" y="312.6" class="st8" width="31.5" height="35.7"/>
	<rect id="XMLID_111_" x="645.4" y="312.6" class="st2" width="31.5" height="35.7"/>
	<path id="XMLID_68_" class="st1" d="M683.1,332.3h-44c-4.4,0-8,3.6-8,8l0,0c0,4.4,3.6,8,8,8h44c4.4,0,8-3.6,8-8l0,0
		C691.1,335.9,687.5,332.3,683.1,332.3z"/>
	<path id="XMLID_67_" class="st2" d="M683.1,332.3h-44c-4.4,0-8,3.6-8,8l0,0c0,4.4,3.6,8,8,8h44c4.4,0,8-3.6,8-8l0,0
		C691.1,335.9,687.5,332.3,683.1,332.3z"/>
	<path id="XMLID_104_" class="st9" d="M651.1,390.3v107c0,5.5,4.5,10,10,10s10-4.5,10-10v-107H651.1z"/>
	<path id="XMLID_125_" class="st2" d="M651.1,390.3v107c0,5.5,4.5,10,10,10s10-4.5,10-10v-107H651.1z"/>
	<circle id="XMLID_66_" class="st7" cx="654.8" cy="420.3" r="3"/>
	<g>
		<circle id="XMLID_122_" class="st9" cx="654.8" cy="367.1" r="5"/>
		<circle id="XMLID_137_" class="st2" cx="654.8" cy="367.1" r="5"/>
	</g>
	<circle id="XMLID_147_" class="st7" cx="667.4" cy="436.3" r="2"/>
	<circle id="XMLID_139_" class="st7" cx="659.5" cy="488.7" r="1.8"/>
	<circle id="XMLID_142_" class="st7" cx="660.5" cy="478.5" r="2.9"/>
</g>
<g>
	<path class="st0" d="M246.6,433.3L246.6,433.3c-1.7,0-3.1-1.4-3.1-3.1v-10.9h-24v10.9c0,1.7-1.4,3.1-3.1,3.1h-1
		c-6.9,0-12.4,5.6-12.4,12.4V509c0,6,4.8,10.8,10.8,10.8h34.4c6,0,10.8-4.8,10.8-10.8v-63.3C259,438.9,253.4,433.3,246.6,433.3z"/>
	<path class="st2" d="M246.6,433.3L246.6,433.3c-1.7,0-3.1-1.4-3.1-3.1v-10.9h-24v10.9c0,1.7-1.4,3.1-3.1,3.1h-1
		c-6.9,0-12.4,5.6-12.4,12.4V509c0,6,4.8,10.8,10.8,10.8h34.4c6,0,10.8-4.8,10.8-10.8v-63.3C259,438.9,253.4,433.3,246.6,433.3z"/>
	<path class="st10" d="M211,419.3v-9.8c0-2.3,1.9-4.2,4.2-4.2h33.6c2.3,0,4.2,1.9,4.2,4.2v9.8"/>
	<path class="st2" d="M253,419.3h-42v-9.8c0-2.3,1.9-4.2,4.2-4.2h33.6c2.3,0,4.2,1.9,4.2,4.2L253,419.3L253,419.3z"/>
	<path class="st9" d="M250.9,450.3c-0.3-2.2-2.1-4-4.4-4c-0.9,0-1.8,0.3-2.5,0.8c-0.1-3.8-3.2-6.8-7-6.8c-3.9,0-7,3.1-7,7
		c0,1.1,0,2,0,1.5c0-3-2.5-5.5-5.5-5.5s-5.5,2.5-5.5,5.5c0,0.5-1,1.2-1,1c0-1.9-1.6-3.5-3.5-3.5s-3.5,1.6-3.5,3.5
		c0,0.2,0,0.3,0.1,0.5H211V509c0,1.5,1.2,2.8,2.8,2.8h34.4c1.5,0,2.8-1.2,2.8-2.8L250.9,450.3L250.9,450.3z"/>
	<circle id="XMLID_221_" class="st7" cx="220.7" cy="462.4" r="2.9"/>
	<circle id="XMLID_222_" class="st7" cx="231.9" cy="476.6" r="1.1"/>
	<circle id="XMLID_226_" class="st7" cx="230.9" cy="432.6" r="1.1"/>
	<circle id="XMLID_227_" class="st7" cx="224.4" cy="436.1" r="0.6"/>
	<circle id="XMLID_224_" class="st7" cx="241.4" cy="498.1" r="1.6"/>
	<circle id="XMLID_225_" class="st7" cx="238.9" cy="461.6" r="1.1"/>
	<path class="st2" d="M250.9,450.3c-0.3-2.2-2.1-4-4.4-4c-0.9,0-1.8,0.3-2.5,0.8c-0.1-3.8-3.2-6.8-7-6.8c-3.9,0-7,3.1-7,7
		c0,1.1,0,2,0,1.5c0-3-2.5-5.5-5.5-5.5s-5.5,2.5-5.5,5.5c0,0.5-1,1.2-1,1c0-1.9-1.6-3.5-3.5-3.5s-3.5,1.6-3.5,3.5
		c0,0.2,0,0.3,0.1,0.5H211V509c0,1.5,1.2,2.8,2.8,2.8h34.4c1.5,0,2.8-1.2,2.8-2.8L250.9,450.3L250.9,450.3z"/>
</g>
<g>
	<path class="st10" d="M539.2,478.3h-227c-7.7,0-14,6.3-14,14v14c0,7.7,6.3,14,14,14h10.3c2.3-7.5,9.3-13,17.6-13h171.2
		c8.3,0,15.3,5.5,17.6,13h10.3c7.7,0,14-6.3,14-14v-14C553.2,484.6,547,478.3,539.2,478.3z"/>
	<path class="st2" d="M539.2,478.3h-227c-7.7,0-14,6.3-14,14v14c0,7.7,6.3,14,14,14h10.3c2.3-7.5,9.3-13,17.6-13h171.2
		c8.3,0,15.3,5.5,17.6,13h10.3c7.7,0,14-6.3,14-14v-14C553.2,484.6,547,478.3,539.2,478.3z"/>
</g>
<g>
	<path class="st0" d="M159.2,364.3L159.2,364.3c-9.4,0-17-7.6-17-17v-15h-40v15c0,9.4-7.6,17-17,17l0,0c-13.3,0-24,10.7-24,24v108
		c0,13.3,10.7,24,24,24h74c13.3,0,24-10.7,24-24v-108C183.2,375,172.4,364.3,159.2,364.3z"/>
	<g>
		<circle id="XMLID_220_" class="st3" cx="134" cy="392.8" r="3.5"/>
		<circle id="XMLID_219_" class="st2" cx="134" cy="392.8" r="3.5"/>
	</g>
	<path class="st3" d="M69.2,395.3v101c0,8.8,7.2,16,16,16h74c8.8,0,16-7.2,16-16v-101H69.2z"/>
	<path class="st2" d="M159.2,364.3L159.2,364.3c-9.4,0-17-7.6-17-17v-15h-40v15c0,9.4-7.6,17-17,17l0,0c-13.3,0-24,10.7-24,24v108
		c0,13.3,10.7,24,24,24h74c13.3,0,24-10.7,24-24v-108C183.2,375,172.4,364.3,159.2,364.3z"/>
	<rect x="93.2" y="316.3" class="st11" width="58" height="28"/>
	<rect x="98" y="316.3" class="st12" width="6" height="28"/>
	<rect x="112.3" y="316.3" class="st12" width="6" height="28"/>
	<rect x="126.7" y="316.3" class="st12" width="6" height="28"/>
	<rect x="141" y="316.3" class="st12" width="6" height="28"/>
	<path class="st11" d="M148,316.3H96.3V314c0-3.7,3-6.7,6.7-6.7h38.3c3.7,0,6.7,3,6.7,6.7V316.3z"/>
	<rect x="93.2" y="316.3" class="st2" width="58" height="28"/>
	<path class="st2" d="M148,316.3H96.3V314c0-3.7,3-6.7,6.7-6.7h38.3c3.7,0,6.7,3,6.7,6.7V316.3z"/>
	<path class="st2" d="M69.2,395.3v101c0,8.8,7.2,16,16,16h74c8.8,0,16-7.2,16-16v-101H69.2z"/>
	<rect x="84.2" y="409.3" class="st13" width="76" height="56"/>
	<rect x="84.2" y="409.3" class="st2" width="76" height="56"/>
	<circle id="XMLID_208_" class="st7" cx="77.5" cy="470.8" r="1.6"/>
	<circle id="XMLID_205_" class="st7" cx="106.9" cy="480.6" r="2.6"/>
	<circle id="XMLID_203_" class="st7" cx="118.6" cy="493.6" r="3.8"/>
	<circle id="XMLID_209_" class="st7" cx="154.6" cy="480.6" r="3.8"/>
	<line class="st2" x1="97" y1="424.3" x2="148" y2="424.3"/>
	<line class="st2" x1="120" y1="437.3" x2="148" y2="437.3"/>
	<line class="st2" x1="120" y1="448.3" x2="148" y2="448.3"/>
	<circle class="st2" cx="104" cy="443.3" r="7"/>
	<g>
		<circle id="XMLID_217_" class="st3" cx="115" cy="376.4" r="4.9"/>
		<circle id="XMLID_212_" class="st2" cx="115" cy="376.4" r="4.9"/>
	</g>
	
		<ellipse id="XMLID_211_" transform="matrix(0.1602 -0.9871 0.9871 0.1602 -252.4452 442.2864)" class="st2" cx="133.7" cy="369.5" rx="2" ry="2"/>
	<circle id="XMLID_210_" class="st7" cx="159.8" cy="382.7" r="2.9"/>
	<circle id="XMLID_218_" class="st7" cx="83.8" cy="386.7" r="2.9"/>
</g>
<g>
	<g>
		<path class="st10" d="M517.7,317c-20.6,36.8-60,61.8-105.2,61.8c-66.6,0-120.5-53.9-120.5-120.5c0-61.9,46.7-112.9,106.8-119.7
			l-4.1-24C324.4,127,271,188.4,271,262.3c0,82.8,67.2,150,150,150c58.7,0,109.5-33.7,134.2-82.9L517.7,317z"/>
		<path class="st2" d="M517.7,317c-20.6,36.8-60,61.8-105.2,61.8c-66.6,0-120.5-53.9-120.5-120.5c0-61.9,46.7-112.9,106.8-119.7
			l-4.1-24C324.4,127,271,188.4,271,262.3c0,82.8,67.2,150,150,150c58.7,0,109.5-33.7,134.2-82.9L517.7,317z"/>
	</g>
	<g>
		<path class="st0" d="M434.2,478.3h-88v-94c0-24.3,19.7-44,44-44l0,0c24.3,0,44,19.7,44,44V478.3z"/>
		<g>
			<circle class="st14" cx="390.2" cy="383.8" r="27"/>
			<circle class="st14" cx="390.2" cy="383.8" r="12"/>
		</g>
		<path class="st2" d="M434.2,478.3h-88v-94c0-24.3,19.7-44,44-44l0,0c24.3,0,44,19.7,44,44V478.3z"/>
		<g>
			<circle class="st2" cx="390.2" cy="383.8" r="27"/>
			<circle class="st15" cx="390.2" cy="383.8" r="12"/>
			<circle class="st2" cx="390.2" cy="383.8" r="12"/>
		</g>
	</g>
	<g>
		<circle class="st0" cx="540" cy="320.3" r="27"/>
		<circle class="st2" cx="540" cy="320.3" r="27"/>
		<circle class="st15" cx="540" cy="320.3" r="12"/>
		<circle class="st2" cx="540" cy="320.3" r="12"/>
	</g>
</g>
<g>
	<g>
		
			<rect x="385.1" y="28.4" transform="matrix(0.9703 -0.2419 0.2419 0.9703 0.9871 99.3471)" class="st16" width="40" height="34.5"/>
		<path class="st0" d="M425.2,22.9L376.5,35c-2,0.5-4-0.6-4.7-2.5L365.9,17l60.2-15l2.1,16.5C428.5,20.5,427.2,22.4,425.2,22.9z"/>
		
			<rect x="406.4" y="59.4" transform="matrix(0.9703 -0.2419 0.2419 0.9703 -25.693 109.5705)" class="st0" width="54" height="200"/>
		
			<rect x="406.4" y="59.4" transform="matrix(0.9703 -0.2419 0.2419 0.9703 -25.693 109.5705)" class="st2" width="54" height="200"/>
		
			<rect x="427.8" y="233.3" transform="matrix(0.9703 -0.2419 0.2419 0.9703 -45.7732 117.291)" class="st15" width="54" height="23.5"/>
		
			<rect x="427.8" y="233.3" transform="matrix(0.9703 -0.2419 0.2419 0.9703 -45.7732 117.291)" class="st2" width="54" height="23.5"/>
		
			<rect x="385.1" y="28.4" transform="matrix(0.9703 -0.2419 0.2419 0.9703 0.9871 99.3471)" class="st2" width="40" height="34.5"/>
		<path class="st2" d="M425.2,22.9L376.5,35c-2,0.5-4-0.6-4.7-2.5L365.9,17l60.2-15l2.1,16.5C428.5,20.5,427.2,22.4,425.2,22.9z"/>
	</g>
	<line class="st2" x1="454.5" y1="186.2" x2="460.2" y2="208.9"/>
	<line class="st2" x1="425.1" y1="68.2" x2="446.2" y2="152.6"/>
	<line class="st2" x1="411.7" y1="35.1" x2="416" y2="52.5"/>
</g>
<g>
	<circle class="st0" cx="394" cy="126.3" r="27"/>
	<circle class="st2" cx="394" cy="126.3" r="27"/>
	<circle class="st15" cx="394" cy="126.3" r="12"/>
	<circle class="st2" cx="394" cy="126.3" r="12"/>
</g>
<g>
	<path class="st0" d="M595,284l-162.7,43.9c-3.7,1-7.6-1.2-8.6-4.9l0,0c-1-3.7,1.2-7.6,4.9-8.6l162.7-43.9c3.7-1,7.6,1.2,8.6,4.9
		l0,0C600.9,279.1,598.7,282.9,595,284z"/>
	<path class="st2" d="M595,284l-162.7,43.9c-3.7,1-7.6-1.2-8.6-4.9l0,0c-1-3.7,1.2-7.6,4.9-8.6l162.7-43.9c3.7-1,7.6,1.2,8.6,4.9
		l0,0C600.9,279.1,598.7,282.9,595,284z"/>
	<polygon class="st15" points="511.2,292.1 436.8,312.2 437.9,303.6 506,285.2 	"/>
	<polygon class="st2" points="511.2,292.1 436.8,312.2 437.9,303.6 506,285.2 	"/>
</g>
<line id="XMLID_207_" class="st17" x1="4" y1="520.3" x2="808" y2="520.3"/>
<path id="XMLID_232_" class="st2" d="M661.1,516.3L661.1,516.3c-10.5,0-19-8.5-19-19v-149h38v149
	C680.1,507.8,671.6,516.3,661.1,516.3z"/>
<g>
	<path class="st10" d="M779,491.3H612v14h29.1c2.7,7.9,10.1,13.5,18.9,13.5s16.2-5.6,18.9-13.5h30c2.5,8.1,10.1,14,19.1,14
		s16.5-5.9,19.1-14H779V491.3z"/>
	<path class="st2" d="M779,491.3H612v14h29.1c2.7,7.9,10.1,13.5,18.9,13.5s16.2-5.6,18.9-13.5h30c2.5,8.1,10.1,14,19.1,14
		s16.5-5.9,19.1-14H779V491.3z"/>
</g>
</svg>
